<svg id="Layer_1" height="512" viewBox="0 0 512 512" width="512" xmlns="http://www.w3.org/2000/svg" data-name="Layer 1"><path d="m187.9 157.688a60.176 60.176 0 0 1 40.053 4.876 63.675 63.675 0 0 0 29.334 7.134 68.48 68.48 0 0 0 30.361-7.151 73.338 73.338 0 0 1 21.3-6.584c8.381-1.343 13.514-.855 14.919-.2a5 5 0 1 0 4.231-9.061c-8.134-3.8-31.3-.211-45.077 6.978-11.539 6.022-31.689 9.632-50.506-.017a69.88 69.88 0 0 0 -47.341-5.6 5 5 0 0 0 2.726 9.622z"/><path d="m56.706 264.927a5 5 0 0 0 7.2 5.805l4.155-2.274c.035 11.139 1.689 29.818 11.336 40.881-7.725 13.458-7.971 44.626-6.826 60.991 1.1 15.678 4.751 43.114 16.886 50.713a5 5 0 0 0 7.653-4.238v-7.705c.381 1.7.731 3.381 1.046 4.885 4.082 19.54 10.251 49.069 39.7 65.252a5 5 0 0 0 7.024-6.3c-.529-1.272-1.226-2.953-2.017-4.862 33.6 30.425 69.008 39.642 94.307 41.713a8.017 8.017 0 0 0 6.949-2.992 7.837 7.837 0 0 0 1.382-2.643l7.574 5.361a8.061 8.061 0 0 0 9.354-.031 7.81 7.81 0 0 0 3.175-4.957l5.728 3.731a8.1 8.1 0 0 0 5.27 1.264c35.174-3.754 67.945-18.581 97.642-44.137-1.243 3.011-2.362 5.711-3.129 7.553a5 5 0 0 0 7.024 6.3c29.444-16.183 35.613-45.712 39.695-65.252.315-1.5.665-3.183 1.046-4.887v7.709a5 5 0 0 0 7.653 4.238c12.135-7.6 15.788-35.033 16.886-50.711 1.3-18.516.819-56-10.266-65.318-.588-.5-1.163-1.01-1.728-1.537 10.685-9.545 11.98-24.092 10.364-35.3l6.812 2.8a5 5 0 0 0 6.9-4.477c.034-1.141.676-28.116-12.756-42.713-4.63-5.03-2.643-12.249-.778-16.545a24.761 24.761 0 0 0 8.033 2.662 4.855 4.855 0 0 0 .5.025 5 5 0 0 0 4.826-6.3c-.685-2.538-16.343-58.853-65.694-102.339h.773a5 5 0 0 0 3.294-8.762 292.1 292.1 0 0 1 -42.956-49.315c-20.808-30.6-61.172-43.286-89.879-42.137-1.379.056-2.78.068-4.162.028-28.321-.796-68.123 12.064-88.554 42.106a292.179 292.179 0 0 1 -42.956 49.316 5 5 0 0 0 3.3 8.761h.772c-49.35 43.486-65.008 99.8-65.694 102.339a5 5 0 0 0 5.322 6.278 23.031 23.031 0 0 0 6.326-1.863c1.322 4.585 2.363 11.414-1 16.285-9.504 13.764-17.19 39.51-17.512 40.599zm27.243-62.4a44.552 44.552 0 0 0 8.309-9.527 5 5 0 0 0 -8.354-5.5 34.653 34.653 0 0 1 -7.008 7.919c7.577-19.965 27.817-63.453 69.366-95.157a5 5 0 0 0 -3.033-8.975h-2.212a300.869 300.869 0 0 0 35.4-42.454c18.317-26.935 54.305-38.464 80-37.736 1.605.043 3.233.032 4.839-.032 26.053-1.046 62.546 10.327 81.207 37.768a300.863 300.863 0 0 0 35.4 42.454h-2.212a5 5 0 0 0 -3.033 8.975c41.46 31.636 61.743 75.154 69.349 95.141a34.561 34.561 0 0 1 -6.991-7.9 5 5 0 0 0 -8.354 5.5 45.512 45.512 0 0 0 7.023 8.385 39.239 39.239 0 0 0 -2.8 7.423c-2.228 8.59-.665 16.11 4.523 21.748 6.913 7.512 9.119 20.174 9.813 28.21l-8.642-3.548a5 5 0 0 0 -6.609 6.3 50.471 50.471 0 0 1 2.412 15.243c-.048 8.345-2.593 14.788-7.561 19.225-5.6-7.546-9.738-16.539-12.74-24.9 14.819-35.441 17.065-60.722 6.651-75.143-6.437-8.915-15.831-11.113-21.211-11.6-5.362-17.848-11.551-35.9-12.729-39.317a5 5 0 0 0 -9.453 3.262c8.233 23.862 20.482 62.6 20.482 71.516 0 34.128-4.807 79.239-4.855 79.691a5 5 0 0 0 4.442 5.502 4.927 4.927 0 0 0 .541.028 5 5 0 0 0 4.964-4.465c.024-.214 1.105-10.362 2.248-24.655 4.83 12.978 12.307 27.276 23.586 36.762 3.418 2.874 9.094 23.142 6.726 56.967a139.626 139.626 0 0 1 -4.563 28.513v-5.31a6.274 6.274 0 0 0 -8.106-5.972c-8 2.426-10.085 12.42-12.728 25.074-3.067 14.676-7.018 33.587-20.683 47.824 2.1-5.155 4-9.882 4.556-11.49a5.1 5.1 0 0 0 -2.075-6.041c-3.517-2.188-5.986.3-8.843 3.177-31.4 31.657-66.656 49.853-104.786 54.091l-8.665-5.644a7.982 7.982 0 0 0 -9.224.3 7.835 7.835 0 0 0 -3.01 4.691l-7.106-5.04a8.056 8.056 0 0 0 -9.412.075 7.766 7.766 0 0 0 -3.222 5.715c-27.417-2.712-66.424-14.531-101.152-54.438-1.991-2.287-4.468-5.135-8.135-3.016a5.066 5.066 0 0 0 -2.207 6.127c.554 1.609 2.452 6.335 4.555 11.49-13.665-14.237-17.616-33.148-20.682-47.824-2.644-12.654-4.732-22.648-12.726-25.073a6.275 6.275 0 0 0 -8.109 5.971v5.31a139.649 139.649 0 0 1 -4.563-28.516c-2.368-33.823 3.309-54.09 6.727-56.965 11.278-9.485 18.756-23.784 23.586-36.762 1.14 14.296 2.218 24.441 2.24 24.656a5 5 0 0 0 4.964 4.465 4.927 4.927 0 0 0 .541-.028 5 5 0 0 0 4.437-5.506c-.048-.452-4.854-45.551-4.854-79.691 0-8.914 12.249-47.653 20.481-71.516a5 5 0 0 0 -9.453-3.262c-1.189 3.449-7.488 21.825-12.885 39.843-5.965 1.357-18.166 5.585-24.866 18.137-8.449 15.831-4.916 38.712 10.484 68.023-3.835 10.7-9.538 22.437-17.765 30.862-8.544-10.927-8.633-33.144-7.825-41.562a5 5 0 0 0 -7.378-4.87l-.687.376c3-8.256 7.4-18.95 12.148-25.823 6.495-9.408 3.645-21.425 1.507-27.484zm316.634-7.527a18.025 18.025 0 0 1 10.007 6.8c5.1 7.059 8.188 22.045-3.2 53.709-1.37-5.628-2.053-9.732-2.25-11 .39-8.363.642-16.82.642-24.709.004-4.6-2.206-14.074-5.199-24.8zm-289.752 49.508c-.213 1.372-1 6.106-2.624 12.5-9.693-21.328-11.777-38.2-5.968-49.2a25.53 25.53 0 0 1 12.75-11.348c-2.786 10.121-4.8 18.953-4.8 23.342.001 7.887.253 16.343.642 24.706z"/><path d="m169.753 304.652c-8.483 24.177-6.595 49.5-2.8 68.278a61.2 61.2 0 0 0 15.7 30.309c11.225 11.727 32.517 26.532 70.206 30.469a49.378 49.378 0 0 0 10.256 0c37.692-3.938 58.984-18.744 70.208-30.472a61.228 61.228 0 0 0 15.7-30.286c3.807-18.809 5.718-44.138-2.774-68.148 16.295-14.73 23.883-36.259 21.965-62.526-.159-2.191-.217-4.524-.175-7.132.33-20.767-5.274-35.476-16.658-43.718-16.408-11.879-40.461-7.236-57.748-1.248a102 102 0 0 1 -33.433 5.713h-4.425a102 102 0 0 1 -33.433-5.713c-17.287-5.987-41.34-10.631-57.748 1.248-11.384 8.242-16.988 22.951-16.658 43.718.042 2.61-.016 4.943-.175 7.131-1.91 26.174 5.688 47.65 21.992 62.377zm169.469 66.314a51.243 51.243 0 0 1 -13.122 25.356c-10.067 10.518-29.347 23.817-64.023 27.441a39.493 39.493 0 0 1 -8.178 0c-34.673-3.623-53.953-16.921-64.021-27.439a51.226 51.226 0 0 1 -13.126-25.373c-6.5-32.177-2.785-59.282 11.032-80.562a75.8 75.8 0 0 1 15.124-17.081c.039.28.072.557.117.843a40.079 40.079 0 0 0 29.631 32.711 50.723 50.723 0 0 0 20.332.745v40.864a5 5 0 0 0 10 0v-40.671a47.45 47.45 0 0 0 7.222.523 57.412 57.412 0 0 0 13.109-1.463 40.076 40.076 0 0 0 29.631-32.711c.012-.081.021-.158.033-.238a73.383 73.383 0 0 1 15.366 17.031c13.719 20.958 17.377 47.887 10.873 80.024zm-42.547-94.176c-1.165-3.7-4.419-8.536-13.306-10.605-7.282-1.695-11.944.831-14.574 3.249-4.458 4.1-6.885 11.309-7.215 21.427-.077 2.358-.029 4.588.068 6.524a26.631 26.631 0 0 0 -7.211-.156c.087-1.912.125-4.107.042-6.425-.364-10.089-2.811-17.281-7.275-21.372-2.637-2.416-7.309-4.944-14.6-3.247-8.888 2.069-12.142 6.909-13.307 10.605a17.974 17.974 0 0 0 .21 10.453 30.383 30.383 0 0 1 -6.607-14.643c-1.508-9.572 2.317-12.093 8.107-15.909a35 35 0 0 0 7.822-6.343c7.583-8.9 8.992-17.724 9.089-22.618a92.58 92.58 0 0 0 17.186 4.133 12.486 12.486 0 0 0 2 .133h.355a54.554 54.554 0 0 0 20.6-4.08c.13 4.929 1.6 13.639 9.084 22.427a34.982 34.982 0 0 0 7.822 6.344c5.79 3.816 9.616 6.337 8.107 15.909a30.374 30.374 0 0 1 -6.606 14.647 17.978 17.978 0 0 0 .209-10.453zm-17.3 20.7a51.165 51.165 0 0 1 -7.68.795c-.565-8.042.2-18.126 3.872-21.5.805-.737 2.254-1.632 5.534-.867 3.447.8 5.478 2.1 6.036 3.867 1.353 4.285-3.451 12.497-7.762 17.709zm-34.99.816a44.593 44.593 0 0 1 -7.777-.805c-4.221-5.1-9.111-13.454-7.771-17.709.557-1.766 2.588-3.068 6.037-3.871 3.294-.768 4.757.132 5.57.876 3.692 3.383 4.486 13.489 3.941 21.513zm-86.651-55.306c.182-2.487.247-5.109.2-8.019-.275-17.313 3.938-29.243 12.524-35.459 13.6-9.85 36.295-4.163 48.61.1a111.993 111.993 0 0 0 36.706 6.264h4.426a111.993 111.993 0 0 0 36.706-6.264c12.316-4.265 35.008-9.949 48.611-.1 8.585 6.216 12.8 18.146 12.523 35.458-.046 2.908.019 5.531.2 8.02 1.576 21.586-4 39.372-16.159 51.907a88.442 88.442 0 0 0 -5.715-9.973 78.965 78.965 0 0 0 -24.2-23.817c-2.325-6.6-7.522-10.03-11.7-12.785a27.242 27.242 0 0 1 -5.713-4.48 30.174 30.174 0 0 1 -4.269-6.5c7.193 5.041 13.893 7.584 20.047 7.584a21.146 21.146 0 0 0 6.339-.957c11.376-3.551 16.9-16.006 19.34-23.984.429.344.695.589.774.666a5 5 0 0 0 7.055-7.088c-.92-.923-23.02-22.349-63.387 1.9a45.045 45.045 0 0 1 -23.1 6.523h-.383-.435c-7.681-1.27-15.1-2.725-21.417-6.52-40.367-24.246-62.467-2.821-63.387-1.9a5 5 0 0 0 7.05 7.092c.075-.073.342-.32.779-.67 2.435 7.978 7.964 20.433 19.34 23.984a21.141 21.141 0 0 0 6.339.957c6.153 0 12.853-2.543 20.047-7.585a30.158 30.158 0 0 1 -4.269 6.5 27.272 27.272 0 0 1 -5.713 4.479c-3.947 2.6-8.8 5.8-11.29 11.713a80.834 80.834 0 0 0 -24.478 24.37 90.383 90.383 0 0 0 -5.851 10.312c-12.138-12.521-17.717-30.246-16.15-51.728zm130.521-20.372c17.865-10.03 30.836-9.608 38.888-7.193-1.78 6.627-5.953 16.732-13.267 19-6.439 2.004-15.23-2.069-25.621-11.803zm-60.534 0c-10.391 9.734-19.182 13.811-25.621 11.808-7.315-2.27-11.487-12.375-13.268-19 8.053-2.412 21.024-2.836 38.889 7.197z"/><path d="m246.217 235.582a5.026 5.026 0 0 0 -6.836 1.891 4.974 4.974 0 0 0 1.879 6.794 8 8 0 0 1 3.385 4.547 5 5 0 0 0 9.762-2.172 17.848 17.848 0 0 0 -8.19-11.06z"/><path d="m265.848 235.582a17.848 17.848 0 0 0 -8.19 11.06 5 5 0 1 0 9.761 2.172 7.986 7.986 0 0 1 3.38-4.544 5 5 0 0 0 -4.951-8.688z"/><path d="m268.968 363.185a84.96 84.96 0 0 1 -21.96 0c-43.883-5.722-63.071 11.526-63.866 12.262a4.991 4.991 0 0 0 5.151 8.328l.008.02a27.991 27.991 0 0 1 21.715 2.907c7.51 4.28 17.568 5.444 28.263 5.444 4.966 0 10.071-.251 15.119-.557 3.149-.191 6.265-.232 9.259-.12l1.336.049c15.47.575 31.465 1.168 41.966-4.816 11.362-6.474 21.279-3.062 21.747-2.895a5 5 0 0 0 5.127-8.356c-.795-.74-19.983-17.982-63.865-12.266zm32.039 14.83c-8.026 4.574-23.227 4.009-36.643 3.509l-1.339-.048c-3.316-.124-6.76-.079-10.232.13-13.784.838-29.215 1.317-37.825-3.591a40.367 40.367 0 0 0 -7.435-3.306c8.516-2.228 21.157-3.824 38.183-1.607a95.2 95.2 0 0 0 24.544 0c16.583-2.163 29.141-.73 38.112 1.628a40.44 40.44 0 0 0 -7.365 3.285z"/></svg>