<svg id="Layer_1" height="512" viewBox="0 0 512 512" width="512" xmlns="http://www.w3.org/2000/svg" data-name="Layer 1"><path d="m281.214 275.438c-3.513-.816-5.1.172-5.988.989-4.135 3.8-4.533 14.982-3.989 22.371a51.561 51.561 0 0 0 8.4-.848c3.745-4.536 9.509-13.453 7.973-18.308-.61-1.942-2.764-3.359-6.396-4.204z"/><path d="m314.041 234.914c8.163-2.548 12.143-13.98 13.674-19.828-8.211-2.589-21.655-3.187-40.285 7.445 10.752 10.196 19.89 14.474 26.611 12.383z"/><path d="m188.237 215.135c1.743 6.715 6.029 17.4 13.712 19.783 6.713 2.089 15.85-2.2 26.6-12.386-18.608-10.612-32.091-9.982-40.312-7.397z"/><path d="m270.2 372.605a94.388 94.388 0 0 1 -24.415 0c-18.243-2.376-31.5-.392-40.051 2.079a39.594 39.594 0 0 1 8.991 3.765c8.73 4.974 24.246 4.5 38.1 3.656 3.456-.209 6.881-.252 10.183-.13l1.339.049c13.481.5 28.759 1.069 36.908-3.575a39.628 39.628 0 0 1 8.9-3.74c-9.114-2.638-22.255-4.409-39.955-2.104z"/><path d="m212.41 272.673a30.835 30.835 0 0 0 8.348 16.709c-1.528-4.088-2.236-8.459-.981-12.442 1.126-3.572 4.285-8.252 12.943-10.268 7.075-1.65 11.6.792 14.146 3.129 7.062 6.474 7.5 20.034 7.066 28a26.158 26.158 0 0 1 8.226.188c-.473-7.975-.11-21.673 6.976-28.188 2.54-2.335 7.056-4.775 14.121-3.13 8.658 2.016 11.818 6.7 12.944 10.268 1.255 3.983.547 8.354-.982 12.442a30.842 30.842 0 0 0 8.348-16.71c1.559-9.889-2.373-12.481-8.325-16.4a34.617 34.617 0 0 1 -7.716-6.251c-7.788-9.141-8.978-18.173-8.979-22.844a54.11 54.11 0 0 1 -21.083 4.321h-.352a12.134 12.134 0 0 1 -1.921-.126 89.557 89.557 0 0 1 -17.759-4.371c.029 4.62-1.1 13.765-8.979 23.017a34.572 34.572 0 0 1 -7.716 6.251c-5.952 3.923-9.884 6.515-8.325 16.405zm45.736-25.923a17.316 17.316 0 0 1 7.947-10.732 4.5 4.5 0 0 1 4.451 7.821 8.51 8.51 0 0 0 -3.613 4.866 4.5 4.5 0 0 1 -8.785-1.955zm-18.3-9.017a4.5 4.5 0 0 1 6.128-1.715 17.312 17.312 0 0 1 7.946 10.732 4.5 4.5 0 1 1 -8.785 1.955 8.423 8.423 0 0 0 -3.573-4.844 4.5 4.5 0 0 1 -1.718-6.128z"/><path d="m312.607 272.988c-.047.358-.093.717-.151 1.086a39.58 39.58 0 0 1 -29.261 32.3 56.79 56.79 0 0 1 -20.707.835v41.258a4.5 4.5 0 0 1 -9 0v-41.467c-.012 0-.023 0-.034.006a40.086 40.086 0 0 1 -8.387.813 52.074 52.074 0 0 1 -12.287-1.442 39.58 39.58 0 0 1 -29.261-32.3c-.093-.59-.165-1.161-.228-1.723a76.039 76.039 0 0 0 -15.9 17.717c-13.917 21.4-17.663 48.647-11.134 80.982a51.718 51.718 0 0 0 13.255 25.62c10.126 10.578 29.506 23.951 64.33 27.59a39.94 39.94 0 0 0 8.282 0c34.827-3.64 54.207-17.014 64.332-27.592a51.743 51.743 0 0 0 13.251-25.6c12.01-59.322-14.17-87.932-27.1-98.083zm20.129 109.186a4.488 4.488 0 0 1 -4.861 1.159c-.49-.177-10.591-3.661-22.163 2.932-10.376 5.916-26.3 5.322-41.7 4.751l-1.336-.05c-3.011-.114-6.141-.073-9.308.121-5.041.305-10.137.556-15.093.556-10.619 0-20.594-1.151-28.01-5.378-11.776-6.71-22.037-2.98-22.14-2.941l-.006-.017a4.492 4.492 0 0 1 -4.637-7.5c.789-.731 19.808-17.822 63.462-12.133a85.511 85.511 0 0 0 22.089 0c43.653-5.693 62.674 11.4 63.462 12.133a4.5 4.5 0 0 1 .241 6.367z"/><path d="m407.3 257.21c12.073-32.828 8.952-48.335 3.753-55.621a18.7 18.7 0 0 0 -11.185-7.287c3.1 11.019 5.414 20.817 5.414 25.5 0 7.9-.253 16.364-.643 24.736.209 1.329 1.007 6.147 2.661 12.672z"/><path d="m436.355 255.678 9.394 3.857c-.622-8.041-2.762-21.446-10.008-29.32-5.067-5.507-6.591-12.866-4.407-21.283a38.923 38.923 0 0 1 2.93-7.662 44.783 44.783 0 0 1 -7.222-8.546 4.5 4.5 0 1 1 7.519-4.948 33.79 33.79 0 0 0 8.489 9.084c-7.115-19.217-27.4-64.392-70.126-96.994a4.5 4.5 0 0 1 2.73-8.077h3.423a300.72 300.72 0 0 1 -36.2-43.235c-18.769-27.6-55.473-39.037-81.64-37.987-1.594.065-3.212.075-4.805.032-25.825-.725-62.006 10.865-80.432 37.955a300.725 300.725 0 0 1 -36.2 43.235h3.423a4.5 4.5 0 0 1 2.73 8.077c-42.8 32.661-63.048 77.806-70.139 97.005a33.815 33.815 0 0 0 8.5-9.095 4.5 4.5 0 1 1 7.519 4.948 43.932 43.932 0 0 1 -8.475 9.644c2.118 5.859 5.155 17.956-1.333 27.356-5.012 7.262-9.637 18.753-12.654 27.18l1.846-1.01a4.5 4.5 0 0 1 6.639 4.382 104.508 104.508 0 0 0 .278 18.907c.828 7.58 2.909 17.287 8.015 23.452 8.559-8.57 14.433-20.668 18.346-31.639-15.41-29.253-18.98-52.045-10.593-67.759 6.721-12.592 19.053-16.686 24.816-17.948 5.411-18.086 11.771-36.639 12.966-40.1a4.5 4.5 0 0 1 8.508 2.936c-8.244 23.895-20.509 62.7-20.509 71.679 0 34.156 4.808 79.293 4.857 79.744a4.5 4.5 0 0 1 -3.993 4.956 4.451 4.451 0 0 1 -.487.025 4.5 4.5 0 0 1 -4.468-4.018c-.025-.226-1.221-11.457-2.427-26.937-4.766 13.463-12.391 28.762-24.225 38.714-4.878 4.1-8.913 28.677-6.9 57.382 1.071 15.294 3.287 25.291 5.562 31.783v-8.612a5.76 5.76 0 0 1 2.327-4.6 5.83 5.83 0 0 1 5.137-.889c7.71 2.34 9.771 12.206 12.381 24.7 3.209 15.36 7.382 35.332 22.575 49.833-2.452-5.985-4.852-11.925-5.485-13.763a4.571 4.571 0 0 1 1.984-5.531c3.309-1.913 5.54.65 7.508 2.912 35.058 40.286 74.474 52.036 102.01 54.657a7.25 7.25 0 0 1 3.036-5.859 7.543 7.543 0 0 1 8.828-.07l7.774 5.5a7.3 7.3 0 0 1 2.936-5.168 7.489 7.489 0 0 1 8.651-.28l8.815 5.742c38.315-4.214 73.73-22.467 105.264-54.255 2.818-2.841 5.042-5.084 8.223-3.105a4.6 4.6 0 0 1 1.867 5.453c-.634 1.838-3.034 7.778-5.486 13.763 15.194-14.5 19.366-34.473 22.575-49.833 2.61-12.49 4.671-22.356 12.384-24.7a5.825 5.825 0 0 1 5.134.89 5.757 5.757 0 0 1 2.327 4.6v8.611c2.276-6.491 4.491-16.487 5.562-31.779 2.01-28.707-2.025-53.282-6.9-57.385-11.834-9.952-19.459-25.251-24.225-38.714-1.2 15.48-2.4 26.711-2.426 26.937a4.5 4.5 0 0 1 -4.469 4.018 4.451 4.451 0 0 1 -.487-.025 4.5 4.5 0 0 1 -3.993-4.956c.049-.451 4.858-45.588 4.858-79.744 0-8.976-12.265-47.784-20.509-71.679a4.5 4.5 0 0 1 8.508-2.936c1.184 3.435 7.443 21.691 12.822 39.625 5.221.419 14.72 2.472 21.185 11.425 10.322 14.294 8.034 39.471-6.78 74.832 3.078 8.613 7.363 17.91 13.2 25.645 5.4-4.583 8.142-11.354 8.139-20.2a50.432 50.432 0 0 0 -2.438-15.151 4.5 4.5 0 0 1 5.945-5.681zm-251.049-107.131a69.336 69.336 0 0 1 46.976 5.563c18.986 9.736 39.322 6.092 50.966.015 13.667-7.133 36.609-10.718 44.633-6.968a4.5 4.5 0 1 1 -3.807 8.154c-4.11-1.915-23.673.015-36.662 6.793a66.337 66.337 0 0 1 -29.941 6.988 63.858 63.858 0 0 1 -29.3-6.974c-20.187-10.349-40.227-4.966-40.428-4.908a4.5 4.5 0 0 1 -2.442-8.663zm163.227 224.3a60.727 60.727 0 0 1 -15.57 30.04c-11.167 11.667-32.358 26.4-69.9 30.32a48.931 48.931 0 0 1 -10.152 0c-37.538-3.922-58.729-18.651-69.9-30.317a60.712 60.712 0 0 1 -15.576-30.063c-3.794-18.793-5.682-44.162 2.893-68.33-16.354-14.628-23.981-36.048-22.074-62.189.161-2.2.219-4.551.177-7.176-.327-20.595 5.208-35.164 16.451-43.305 16.235-11.753 40.116-7.13 57.291-1.181a102.511 102.511 0 0 0 33.6 5.741h4.427a102.511 102.511 0 0 0 33.6-5.741c17.176-5.949 41.057-10.572 57.291 1.181 11.244 8.141 16.779 22.71 16.451 43.305-.042 2.624.016 4.97.177 7.176 1.915 26.239-5.7 47.711-22.051 62.343 8.58 24.002 6.675 49.377 2.865 68.2z"/><path d="m358.739 242.968c-.18-2.475-.245-5.083-.2-7.976.278-17.485-4-29.553-12.73-35.871-13.788-9.981-36.661-4.263-49.068.033a111.455 111.455 0 0 1 -36.542 6.237h-4.425a111.455 111.455 0 0 1 -36.542-6.237c-12.406-4.3-35.281-10.014-49.068-.033-8.725 6.318-13.008 18.386-12.73 35.872.046 2.894-.019 5.5-.2 7.974-1.6 21.917 4.207 39.955 16.793 52.608a90.223 90.223 0 0 1 6.127-10.881c9.5-14.416 20.425-21.876 24.487-24.32 2.426-5.875 7.235-9.047 11.14-11.62a27.635 27.635 0 0 0 5.818-4.572 29.917 29.917 0 0 0 5.095-8.32c-7.673 5.695-14.779 8.577-21.252 8.577a20.683 20.683 0 0 1 -6.192-.934c-11.5-3.59-16.93-16.508-19.219-24.34a13.667 13.667 0 0 0 -1.371 1.118 4.5 4.5 0 1 1 -6.374-6.353c.91-.913 22.74-22.076 62.776 1.971 6.393 3.84 13.862 5.306 21.593 6.585.113.009.288.006.457.005h.055.377a45.543 45.543 0 0 0 23.366-6.595c40.034-24.046 61.866-2.884 62.775-1.971a4.5 4.5 0 0 1 -6.352 6.376 14.716 14.716 0 0 0 -1.392-1.145c-2.288 7.832-7.717 20.753-19.22 24.344a20.683 20.683 0 0 1 -6.192.934c-6.473 0-13.579-2.881-21.252-8.577a29.941 29.941 0 0 0 5.1 8.32 27.661 27.661 0 0 0 5.818 4.572c4.135 2.724 9.282 6.123 11.542 12.688 4.189 2.485 14.891 9.749 24.216 23.773a87.884 87.884 0 0 1 5.991 10.539c12.596-12.658 18.403-30.757 16.795-52.781z"/><path d="m101.8 207.561c-6.006 11.363-3.728 28.851 6.542 50.949 1.886-7.185 2.772-12.562 2.989-13.975-.391-8.372-.643-16.838-.643-24.735 0-4.5 2.135-13.709 5.049-24.192a26.347 26.347 0 0 0 -13.937 11.953z"/><path d="m234.761 275.438c-3.634.845-5.787 2.261-6.4 4.208-1.54 4.886 4.233 13.795 7.978 18.314a45.175 45.175 0 0 0 8.513.853c.6-7.9 0-18.656-4.07-22.381-.897-.82-2.497-1.815-6.021-.994z"/></svg>